# xmcd
#
# Track frame offsets:
#   150
#   10567
#   17727
#   27275
#   36755
#   45337
#   54710
#   63892
#   73775
#   83610
#   92802
#   103232
#   111675
#   143642
#
# Disc length: 2255 seconds
#
# Revision: 0
# Processed by: cddbd v1.5.1PL2 Copyright (c) Steve Scherf et al.
# Submitted via: uFREEDB ActiveX Control 1.5
#
DISCID=b408cd0e
DTITLE=Zé Raymundo de Caruaru - Forró
DYEAR=1900
DGENRE=Latin
TTITLE0=Forró na fazendinha
TTITLE1=Forró do Zé do Fole
TTITLE2=Arrasta-pé no brejo
TTITLE3=Alegria do Sertão
TTITLE4=Cavalo Manco
TTITLE5=Forró alegre
TTITLE6=O sanfoneiro só tocava isso
TTITLE7=Não pise no meu calo
TTITLE8=Forró em Goiania
TTITLE9=Dançando mazuca
TTITLE10=Forró sem briga
TTITLE11=Fim de festa
TTITLE12=Quadrilha brasileira
TTITLE13=De Recife à Caruaru
EXTD=
EXTT0=
EXTT1=
EXTT2=
EXTT3=
EXTT4=
EXTT5=
EXTT6=
EXTT7=
EXTT8=
EXTT9=
EXTT10=
EXTT11=
EXTT12=
EXTT13=
PLAYORDER=
